<?xml version="1.0" encoding="UTF-8"?><svg id="Layer_1" xmlns="http://www.w3.org/2000/svg" xmlns:xlink="http://www.w3.org/1999/xlink" viewBox="0 0 1642.76 382.54"><defs><style>.cls-1{stroke-width:20px;}.cls-1,.cls-2{fill:none;stroke:#009df7;stroke-miterlimit:10;}.cls-3{fill:#fffcf2;}.cls-4{fill:#009df7;}.cls-5{opacity:.11;}.cls-5,.cls-6,.cls-7{fill:#fff;}.cls-2{stroke-width:7px;}.cls-6{opacity:.21;}.cls-8{fill:url(#linear-gradient);}.cls-7{opacity:.09;}</style><linearGradient id="linear-gradient" x1="59.35" y1="184.15" x2="313.14" y2="184.15" gradientUnits="userSpaceOnUse"><stop offset="0" stop-color="#7dd6f6"/><stop offset="1" stop-color="#6cf"/></linearGradient></defs><path class="cls-3" d="M128.05,13.05h116.74c63.97,0,115.9,51.93,115.9,115.9v143.1c0,47.13-38.27,85.4-85.4,85.4h-144.64c-66.27,0-120.07-53.8-120.07-120.07v-106.88C10.59,65.68,63.22,13.05,128.05,13.05Z"/><path class="cls-8" d="M311.96,302.92c3.37,5.84-.84,13.14-7.59,13.14h-61.66c-22.22,0-40.27-17.87-40.54-40.01-.01-.18-.01-.35-.01-.53v-77.83h-.06v-18.97c0-3.74,3.03-6.77,6.77-6.77h18.97c.72,0,1.31.59,1.31,1.31v11.59l70.57-40.75-70.57-40.74v11.68h-19.08c-35.84,0-64.9,29.06-64.9,64.9v101.1c0,19.41-15.74,35.15-35.15,35.15h-3.78c-1.98,0-3.69-.56-6-2.37-9.62-7.55-19.62-30.42-25.39-44.03-21.86-51.52-17.8-104.8-5.01-146.39,8.09-26.3,19.67-47.93,30.4-61.47.03-.04.06-.08.09-.12,4.77-5.99,12.07-9.42,19.73-9.42h84.68c2.44-.19,4.91-.28,7.41-.28,32.33,0,60.88,16.15,78.03,40.85.01.02.03.04.04.06h.01c8.99,11.07,14.75,24.87,15.81,39.97.7,4.58,1.05,9.28,1.05,14.06,0,2.97-.14,5.91-.4,8.8-2.62,28.44-17.78,53.25-39.9,68.85l8.65,14.97,27.22,47.16,9.29,16.09Z"/><path class="cls-6" d="M161.9,52.39c-13.26,25.28-34.07,45.97-59.44,59.08-10.2,5.27-21.13,9.31-32.61,11.93,8.09-26.3,19.67-47.93,30.4-61.47.03-.04.06-.08.09-.12,4.77-5.99,12.07-9.42,19.73-9.42h41.83Z"/><path class="cls-5" d="M319.55,316.06h-76.84c-22.22,0-40.26-17.87-40.54-40.01,12.61-6.59,26.95-10.32,42.17-10.32,22.18,0,42.51,7.92,58.33,21.1l16.88,29.24Z"/><path class="cls-7" d="M266.8,224.7l8.65,14.97c-9.25-8.86-15.01-21.34-15.01-35.17,0-26.08,20.49-47.37,46.26-48.65-2.62,28.44-17.77,53.25-39.89,68.84Z"/><path class="cls-1" d="M31.75,58.96c1.45-4.62,4.01-12.39,10.98-18.9,4.72-4.42,9.89-6.79,21.34-10.37,19.35-6.04,34.15-8.54,34.15-8.54,22.89-3.86,40.73-5.21,44.51-5.49,16.91-1.24,42.36-3.01,76.22-1.22,17.53.93,36.69,3.53,75,9.15,7.11,1.04,19.3,2.97,30.9,11.86,8.09,6.2,12.45,13.15,14.36,16.26,22.09,35.98,21.83,119.88,21.68,137.14-.03,3-.36,31.89-4.61,69.11-.12,1.03-2.91,24.37-12.2,52.31-2.76,8.31-5.03,13.81-9.76,19.24-8.34,9.59-19.17,13.06-33.88,16.53-31.87,7.53-57.86,9.4-65.04,9.89-12.98.88-28.77,1.92-52.58,1.9-15.72-.02-65.15-.54-111.32-13.28-6.26-1.73-15.89-4.63-25-12.6-8.72-7.63-13.78-17.11-18.9-32.52-1.75-5.26-8.47-25.22-11.79-67.69-.36-4.63-1.69-22.36-1.63-46.34.06-23.87,1.47-42.33,2.24-51.22,0,0,3.15-36.3,15.31-75.21Z"/><path class="cls-2" d="M408.07,302.8V89.31h125.93c11.13,0,21.62,1.12,31.48,3.37,9.86,2.24,18.4,5.81,25.62,10.69,7.22,4.88,12.89,11.32,16.99,19.32,4.1,8.01,6.15,17.87,6.15,29.58,0,12.7-3.37,23.77-10.1,33.24-6.73,9.47-16.25,15.77-28.55,18.89v2.05c11.32,1.95,19.72,6.39,25.18,13.32,5.46,6.93,8.2,16.45,8.2,28.55v29.28c0,4.1.15,8.25.44,12.45.29,4.21,1.41,8.45,3.37,12.74h-51.25c-1.17-2.73-2.05-6.15-2.63-10.25-.59-4.1-.88-8.98-.88-14.64v-22.55c0-6.05-.93-11.17-2.78-15.38-1.86-4.19-5.13-7.47-9.81-9.81-4.68-2.34-11.33-3.51-19.92-3.51h-66.18v76.14h-51.25ZM459.32,189.75h64.43c14.64,0,24.79-2.92,30.46-8.79,5.66-5.86,8.49-13.57,8.49-23.13,0-7.41-1.66-13.27-4.98-17.57-3.32-4.29-7.91-7.37-13.77-9.22-5.86-1.86-12.59-2.79-20.21-2.79h-64.43v61.5Z"/><path class="cls-2" d="M638.25,302.8V89.31h51.25v88.73l-3.81-3.51h122.71l-3.52,3.51v-88.73h51.25v213.49h-51.25v-91.67l3.52,3.52h-122.71l3.81-3.52v91.67h-51.25Z"/><path class="cls-4" d="M971.52,308.66c-18.99,0-35.47-3.2-49.42-9.59-13.96-6.39-24.76-15.5-32.42-27.33-7.66-11.82-11.48-26.07-11.48-42.73s3.82-31.88,11.48-43.9c7.65-12.02,18.46-21.32,32.42-27.91,13.95-6.59,30.23-9.88,48.84-9.88,19.77,0,36.63,3.63,50.59,10.9,13.95,7.27,24.32,17.69,31.1,31.25,6.78,13.57,9.49,29.94,8.14,49.13h-133.73c.19,7.75,2.13,14.44,5.82,20.06,3.68,5.63,8.96,9.88,15.85,12.79,6.87,2.91,14.87,4.36,23.98,4.36,10.66,0,19.72-1.79,27.18-5.38,7.46-3.59,12.26-8.29,14.39-14.1h46.51c-1.55,10.46-6.4,19.62-14.54,27.47-8.14,7.84-18.61,13.95-31.39,18.31-12.79,4.36-27.23,6.54-43.32,6.54ZM925.88,214.47l-1.74-2.61h90.7l-2.32,2.32c-.2-6.98-1.94-12.94-5.24-17.88-3.29-4.95-8-8.77-14.1-11.48-6.11-2.71-13.62-4.07-22.53-4.07s-15.94,1.31-22.24,3.93c-6.31,2.61-11.39,6.44-15.26,11.48-3.88,5.04-6.3,11.14-7.27,18.31Z"/><path class="cls-4" d="M1083.44,306.05v-155.82h46.8l2.32,26.46h2.03c5.24-9.49,12.6-16.76,22.1-21.81,9.49-5.04,20.44-7.55,32.84-7.55,13.38,0,24.95,2.9,34.74,8.71,9.78,5.82,16.81,14.45,21.07,25.87h2.62c6-12.21,14.19-21.02,24.56-26.46,10.37-5.42,22.24-8.13,35.61-8.13s25.19,2.61,34.89,7.84c9.69,5.24,17.05,13.13,22.1,23.7,5.04,10.56,7.55,24.18,7.55,40.84v86.34h-49.13v-79.95c0-8.52-.92-15.88-2.76-22.09-1.85-6.2-5.14-11-9.88-14.39-4.75-3.39-11.3-5.08-19.63-5.08s-15.11,1.7-20.93,5.08c-5.81,3.39-10.27,8.19-13.37,14.39-3.1,6.21-4.65,13.28-4.65,21.22v80.82h-48.84v-79.37c0-8.72-1.02-16.23-3.06-22.53-2.03-6.3-5.43-11.14-10.17-14.54-4.75-3.39-11.19-5.08-19.33-5.08s-15.36,1.74-21.07,5.23c-5.72,3.49-10.03,8.29-12.94,14.39-2.9,6.1-4.36,13.13-4.36,21.07v80.82h-49.13Z"/><path class="cls-4" d="M1401.76,130.46v-36.34h48.84v36.34h-48.84ZM1401.76,306.05v-155.82h48.84v155.82h-48.84Z"/><path class="cls-4" d="M1541.87,306.05c-8.53,0-15.98-1.41-22.38-4.21-6.4-2.81-11.29-7.08-14.68-12.8-3.39-5.71-5.08-12.83-5.08-21.36v-80.53h-29.36v-36.92h29.36v-39.54l47.67-9.3v48.84h38.95v36.92h-38.95v64.54c0,4.85,1.21,8.19,3.63,10.03,2.42,1.84,6.15,2.76,11.2,2.76h24.12v41.57h-44.48Z"/></svg>